<?xml version="1.0" encoding="UTF-8"?>
<svg version="1.1" xmlns="http://www.w3.org/2000/svg" width="4364" height="685">
<path d="M0 0 C1.0935379 -0.0080365 2.18707581 -0.016073 3.31375122 -0.02435303 C23.75949948 -0.13815445 43.93144026 1.63232934 64 5.625 C65.06250977 5.83406982 66.12501953 6.04313965 67.21972656 6.25854492 C78.67094519 8.60114773 89.82390219 11.77388216 100.9375 15.375 C101.8332373 15.66181641 102.72897461 15.94863281 103.65185547 16.24414062 C135.05612244 26.47173869 164.34609302 42.55355054 189.9375 63.375 C190.54110352 63.86291016 191.14470703 64.35082031 191.76660156 64.85351562 C205.44227774 75.98996157 218.17511368 88.38593998 228.9375 102.375 C229.70964844 103.33019531 230.48179687 104.28539063 231.27734375 105.26953125 C271.46660013 155.74418973 285.9375 217.94749009 285.9375 281.375 C186.6075 281.375 87.2775 281.375 -15.0625 281.375 C-15.0625 249.035 -15.0625 216.695 -15.0625 183.375 C29.4875 183.375 74.0375 183.375 119.9375 183.375 C91.97464415 151.41745045 54.94288289 132.41831792 12.20751953 129.50390625 C-18.36039687 127.76806415 -48.39119891 133.19429149 -76.0625 146.375 C-76.84044922 146.74077148 -77.61839844 147.10654297 -78.41992188 147.48339844 C-101.97334262 158.71820595 -123.37330603 175.42733992 -139.0625 196.375 C-139.93955487 197.50172988 -140.81719256 198.62800624 -141.6953125 199.75390625 C-152.38915293 213.67296245 -160.69544765 229.03132101 -167.0625 245.375 C-167.32514648 246.04901855 -167.58779297 246.72303711 -167.85839844 247.41748047 C-186.04920967 295.27797701 -182.03875396 349.18167491 -161.3671875 395.5234375 C-150.20334617 419.79588508 -135.82177494 442.64913114 -116.25 461.08203125 C-115.0625 462.375 -115.0625 462.375 -115.0625 464.375 C-114.46824219 464.63667969 -113.87398437 464.89835937 -113.26171875 465.16796875 C-110.92861966 466.44847962 -109.64979812 467.71878094 -107.875 469.6875 C-72.57004544 505.77846468 -19.05768934 524.1203855 30.46948242 524.72631836 C46.7875325 524.84490434 62.82725144 524.17593583 78.9375 521.375 C79.8759375 521.21402832 80.814375 521.05305664 81.78125 520.88720703 C104.31541623 516.85937959 126.40900819 509.49487584 146.9375 499.375 C148.08025391 498.8169165 148.08025391 498.8169165 149.24609375 498.24755859 C171.74916836 487.14844359 191.84674313 472.72823118 209.9375 455.375 C210.55383301 454.79121582 211.17016602 454.20743164 211.80517578 453.60595703 C221.97091966 443.93659226 230.81589367 433.81059512 238.9375 422.375 C239.43701172 421.68245117 239.93652344 420.98990234 240.45117188 420.27636719 C254.02444053 401.32850775 264.53579454 380.45997276 271.9375 358.375 C272.21674316 357.54693848 272.49598633 356.71887695 272.78369141 355.86572266 C279.68568838 335.04598489 282.30860647 314.28244606 284.9375 292.375 C328.8275 292.375 372.7175 292.375 417.9375 292.375 C411.72740625 394.84154692 372.2406161 490.6381381 294.29345703 559.83447266 C292.02314678 561.75934885 289.69993174 563.61070451 287.359375 565.44921875 C285.05959654 567.27791356 282.90838795 569.19545398 280.75 571.1875 C262.5571165 587.45521065 241.22229435 600.59756363 219.9375 612.375 C219.19387207 612.79201172 218.45024414 613.20902344 217.68408203 613.63867188 C186.53220951 631.02891815 151.87171896 643.24242418 116.9375 650.375 C116.00921387 650.56642578 115.08092773 650.75785156 114.12451172 650.95507812 C107.42371859 652.30393145 100.70407948 653.41202653 93.9375 654.375 C92.35412842 654.60147217 92.35412842 654.60147217 90.73876953 654.83251953 C-3.31060917 667.62168985 -101.04832435 642.74388657 -176.87109375 585.53125 C-180.32247021 582.8778386 -183.70701842 580.14837804 -187.0625 577.375 C-187.62211426 576.91303223 -188.18172852 576.45106445 -188.75830078 575.97509766 C-203.10160693 564.05842889 -216.73353457 551.37546765 -229.0625 537.375 C-229.73176514 536.62283203 -229.73176514 536.62283203 -230.41455078 535.85546875 C-290.47742687 468.06302823 -316.73423548 379.66060446 -311.8515625 290.11816406 C-310.0046076 263.13443279 -304.12588535 236.14267693 -296.0625 210.375 C-295.79356934 209.51438965 -295.52463867 208.6537793 -295.24755859 207.76708984 C-286.29729375 179.67913332 -273.28816749 152.34254858 -256.0625 128.375 C-255.59875977 127.72869629 -255.13501953 127.08239258 -254.65722656 126.41650391 C-247.59796738 116.65284583 -240.06553619 107.37741899 -232.0625 98.375 C-231.57861816 97.8279541 -231.09473633 97.2809082 -230.59619141 96.71728516 C-225.70672448 91.20943963 -220.78537054 85.86490176 -215.125 81.12890625 C-212.69259794 79.06044313 -210.39013475 76.87312132 -208.0625 74.6875 C-165.02195986 35.51109676 -108.64123824 13.47635138 -52.0625 3.375 C-51.07846191 3.19420898 -50.09442383 3.01341797 -49.08056641 2.82714844 C-32.83725555 -0.01126927 -16.43866508 0.06729934 0 0 Z " fill="#1144B0" transform="translate(366.0625,-0.375)"/>
<path d="M0 0 C39.27 0 78.54 0 119 0 C132.09859155 15.28169014 132.09859155 15.28169014 137.078125 21.578125 C140.66376736 26.09661741 144.34123694 30.54068708 148 35 C149.50028317 36.83310162 151.00028408 38.66643427 152.5 40.5 C153.2425 41.4075 153.985 42.315 154.75 43.25 C172 64.33333333 189.25 85.41666667 206.5 106.5 C207.24894531 107.41523438 207.99789062 108.33046875 208.76953125 109.2734375 C210.20499935 111.02817784 211.63993796 112.78335155 213.07421875 114.5390625 C217.70323818 120.2034079 222.34813906 125.85440553 227 131.5 C232.34685204 137.98905001 237.68056318 144.48844833 243 151 C244.49985696 152.83345036 245.9998594 154.66678171 247.5 156.5 C280.5 196.83333333 313.5 237.16666667 346.5 277.5 C347.24894531 278.41523438 347.99789062 279.33046875 348.76953125 280.2734375 C350.20499935 282.02817784 351.63993796 283.78335155 353.07421875 285.5390625 C357.70323818 291.2034079 362.34813906 296.85440553 367 302.5 C372.34685204 308.98905001 377.68056318 315.48844833 383 322 C384.49985696 323.83345036 385.9998594 325.66678171 387.5 327.5 C405.5 349.5 405.5 349.5 407.72265625 352.21875 C409.31100114 354.15854685 410.90238673 356.09585618 412.49609375 358.03125 C413.70458984 359.50078125 413.70458984 359.50078125 414.9375 361 C415.66839844 361.886875 416.39929687 362.77375 417.15234375 363.6875 C419 366 419 366 421 369 C421.33 247.23 421.66 125.46 422 0 C468.53 0 515.06 0 563 0 C563 202.29 563 404.58 563 613 C524.06 613 485.12 613 445 613 C432.08701413 597.93484982 432.08701413 597.93484982 427.25390625 591.8203125 C424.22909051 588.03536109 421.14607561 584.29963747 418.0625 580.5625 C417.44906738 579.81895264 416.83563477 579.07540527 416.20361328 578.30932617 C415.00572252 576.8574005 413.80780667 575.40549553 412.60986328 573.95361328 C410.56681111 571.47431339 408.532288 568.9881283 406.5 566.5 C402.67879554 561.82330201 398.84064015 557.16073456 395 552.5 C390.45786868 546.98798441 385.92539199 541.4683902 381.40625 535.9375 C378.27823847 532.11888852 375.13915083 528.30945577 372 524.5 C367.45786868 518.98798441 362.92539199 513.4683902 358.40625 507.9375 C355.27823843 504.11888847 352.13913708 500.30946716 349 496.5 C342.96460706 489.17537717 336.94905759 481.83496785 330.9453125 474.484375 C325.69686804 468.0632012 320.42755621 461.6594752 315.15356445 455.25927734 C311.22747162 450.49373259 307.31301136 445.71890943 303.40625 440.9375 C300.27823847 437.11888852 297.13915083 433.30945577 294 429.5 C289.45786868 423.98798441 284.92539199 418.4683902 280.40625 412.9375 C277.27823843 409.11888847 274.13913708 405.30946716 271 401.5 C264.96460706 394.17537717 258.94905759 386.83496785 252.9453125 379.484375 C247.69686804 373.0632012 242.42755621 366.6594752 237.15356445 360.25927734 C233.22747162 355.49373259 229.31301136 350.71890943 225.40625 345.9375 C222.27823847 342.11888852 219.13915083 338.30945577 216 334.5 C211.45786868 328.98798441 206.92539199 323.4683902 202.40625 317.9375 C199.27823843 314.11888847 196.13913708 310.30946716 193 306.5 C186.96460706 299.17537717 180.94905759 291.83496785 174.9453125 284.484375 C170.30936591 278.81255756 165.65824238 273.15351382 161 267.5 C152.55616309 257.24951685 152.55616309 257.24951685 148.8125 252.6875 C148.13832031 251.86636719 147.46414062 251.04523438 146.76953125 250.19921875 C145.13509521 248.16789978 143.56433681 246.08578241 142 244 C141.67 365.77 141.34 487.54 141 613 C94.47 613 47.94 613 0 613 C0 410.71 0 208.42 0 0 Z " fill="#316A53" transform="translate(2282,31)"/>
<path d="M0 0 C39.27 0 78.54 0 119 0 C132.09859155 15.28169014 132.09859155 15.28169014 137.078125 21.578125 C140.66376736 26.09661741 144.34123694 30.54068708 148 35 C149.50028317 36.83310162 151.00028408 38.66643427 152.5 40.5 C153.2425 41.4075 153.985 42.315 154.75 43.25 C157 46 159.25 48.75 161.5 51.5 C162.24894531 52.41523437 162.99789062 53.33046875 163.76953125 54.2734375 C165.20499935 56.02817784 166.63993796 57.78335155 168.07421875 59.5390625 C172.70323818 65.2034079 177.34813906 70.85440553 182 76.5 C187.34685204 82.98905001 192.68056318 89.48844833 198 96 C199.49985696 97.83345036 200.9998594 99.66678171 202.5 101.5 C232.5 138.16666667 262.5 174.83333333 292.5 211.5 C293.24894531 212.41523438 293.99789063 213.33046875 294.76953125 214.2734375 C296.20499935 216.02817784 297.63993796 217.78335155 299.07421875 219.5390625 C303.70323818 225.2034079 308.34813906 230.85440553 313 236.5 C318.34685204 242.98905001 323.68056318 249.48844833 329 256 C330.49985696 257.83345036 331.9998594 259.66678171 333.5 261.5 C405.5 349.5 405.5 349.5 407.72265625 352.21875 C409.31100114 354.15854685 410.90238673 356.09585618 412.49609375 358.03125 C413.70458984 359.50078125 413.70458984 359.50078125 414.9375 361 C415.66839844 361.886875 416.39929687 362.77375 417.15234375 363.6875 C419 366 419 366 421 369 C421.33 247.23 421.66 125.46 422 0 C468.53 0 515.06 0 563 0 C563 202.29 563 404.58 563 613 C524.06 613 485.12 613 445 613 C431.92236842 597.74276316 431.92236842 597.74276316 426.90234375 591.3984375 C420.44290912 583.25450964 413.76389512 575.2813099 407.15380859 567.25952148 C403.22758726 562.49393398 399.31308387 557.71899817 395.40625 552.9375 C392.27823847 549.11888852 389.13915083 545.30945577 386 541.5 C381.45786868 535.98798441 376.92539199 530.4683902 372.40625 524.9375 C369.27823843 521.11888847 366.13913708 517.30946716 363 513.5 C356.96460706 506.17537717 350.94905759 498.83496785 344.9453125 491.484375 C339.69686804 485.0632012 334.42755621 478.6594752 329.15356445 472.25927734 C325.22747162 467.49373259 321.31301136 462.71890943 317.40625 457.9375 C314.27823847 454.11888852 311.13915083 450.30945577 308 446.5 C303.45786868 440.98798441 298.92539199 435.4683902 294.40625 429.9375 C291.27823847 426.11888852 288.13915083 422.30945577 285 418.5 C280.45786868 412.98798441 275.92539199 407.4683902 271.40625 401.9375 C268.27823843 398.11888847 265.13913708 394.30946716 262 390.5 C255.96460706 383.17537717 249.94905759 375.83496785 243.9453125 368.484375 C238.69686804 362.0632012 233.42755621 355.6594752 228.15356445 349.25927734 C224.22747162 344.49373259 220.31301136 339.71890943 216.40625 334.9375 C213.27823847 331.11888852 210.13915083 327.30945577 207 323.5 C202.45786868 317.98798441 197.92539199 312.4683902 193.40625 306.9375 C190.27823843 303.11888847 187.13913708 299.30946716 184 295.5 C177.96460706 288.17537717 171.94905759 280.83496785 165.9453125 273.484375 C162.4474778 269.20497284 158.94436891 264.93032291 155.42578125 260.66796875 C154.79889404 259.90822754 154.17200684 259.14848633 153.52612305 258.36572266 C152.27967074 256.85563776 151.03246402 255.34617517 149.78442383 253.83740234 C149.20845459 253.13953613 148.63248535 252.44166992 148.0390625 251.72265625 C147.52553223 251.10140869 147.01200195 250.48016113 146.48291016 249.84008789 C144.94299711 247.92926723 143.47245523 245.96327364 142 244 C141.67 365.77 141.34 487.54 141 613 C94.47 613 47.94 613 0 613 C0 410.71 0 208.42 0 0 Z " fill="#1C5190" transform="translate(855,31)"/>
<path d="M0 0 C153.12 0 306.24 0 464 0 C464 37.62 464 75.24 464 114 C358.07 114 252.14 114 143 114 C143 167.13 143 220.26 143 275 C236.39 275 329.78 275 426 275 C426 312.95 426 350.9 426 390 C332.61 390 239.22 390 143 390 C143 463.59 143 537.18 143 613 C95.81 613 48.62 613 0 613 C0 410.71 0 208.42 0 0 Z " fill="#245A7A" transform="translate(1501,31)"/>
<path d="M0 0 C19.48734949 -0.75056895 38.9717381 -1.31320573 58.47058582 -1.6579895 C67.52707678 -1.82241755 76.57455009 -2.04604035 85.62524414 -2.4140625 C93.52332691 -2.73506111 101.41488604 -2.93988797 109.31930941 -3.01083183 C113.5015529 -3.05228696 117.66515933 -3.14790574 121.84134865 -3.38336182 C146.47876165 -4.71856437 146.47876165 -4.71856437 153.64884138 1.40913391 C160.72661517 8.95128755 164.95906242 18.57199976 169.0993557 27.92193604 C171.97514066 34.29609265 175.76553592 40.10162607 179.5 46 C180.90435303 48.2865896 182.29602119 50.58052688 183.6875 52.875 C184.2753125 53.84179688 184.2753125 53.84179688 184.875 54.828125 C189.54363154 62.53136704 194.12015711 70.28951364 198.70800781 78.04101562 C204.92257613 88.53784923 211.2196792 98.98069783 217.57055664 109.39550781 C223.0983855 118.47124353 228.5267364 127.60409147 233.9375 136.75 C240.84494862 148.45031459 240.84494862 148.45031459 248 160 C253.29764141 168.3340077 258.28050249 176.85722335 263.30810547 185.35546875 C268.97977332 194.9403881 274.701625 204.49121266 280.5 214 C288.75959421 227.5493367 296.86104909 241.19041962 304.94345093 254.8460083 C307.94209394 259.90952275 310.96349226 264.9591162 314 270 C320.57949707 259.71636448 326.84721599 249.25598099 333.0625 238.75 C339.14845588 228.46264576 345.277017 218.20507577 351.5 208 C357.57203055 198.04201956 363.55909769 188.03674049 369.5 178 C375.48901107 167.88424234 381.51565004 157.7935915 387.625 147.75 C388.14661713 146.89239075 388.14661713 146.89239075 388.67877197 146.01745605 C391.4635571 141.44038652 394.25254205 136.86588018 397.04174805 132.29150391 C399.48817118 128.27888859 401.93285355 124.26521976 404.375 120.25 C404.72258362 119.67858276 405.07016724 119.10716553 405.42828369 118.51843262 C411.59408408 108.37519055 417.66115381 98.17489347 423.7074585 87.96008301 C429.92135832 77.46428075 436.21703767 67.02199561 442.56835938 56.60888672 C446.40778738 50.30648253 450.2095694 43.9834536 453.96875 37.6328125 C454.38878296 36.92340515 454.80881592 36.2139978 455.24157715 35.48309326 C457.27152107 32.05247045 459.29755526 28.61960775 461.31835938 25.18359375 C462.06635823 23.91663831 462.81440304 22.64971001 463.5625 21.3828125 C464.20316406 20.29371582 464.84382813 19.20461914 465.50390625 18.08251953 C465.89788101 17.49296478 466.29185577 16.90341003 466.69776917 16.29598999 C468.16701735 13.87830992 468.16701735 13.87830992 469.17320251 10.47085571 C470.90014668 6.00705698 472.85306221 2.57103244 477 0 C486.34713556 -2.51731603 496.57277563 -1.67275664 506.18261838 -1.41951513 C510.08201674 -1.33161294 513.98158446 -1.32374408 517.88182068 -1.30715942 C525.25652978 -1.26375282 532.62831131 -1.14903058 540.00173467 -1.00826657 C548.40040097 -0.8514329 556.79921195 -0.77472282 565.1989795 -0.70453048 C582.46767604 -0.55844074 599.73352792 -0.31241915 617 0 C615.62230373 4.29921873 614.05519317 7.87701915 611.68359375 11.7265625 C611.01086426 12.82581055 610.33813477 13.92505859 609.64501953 15.05761719 C608.90919277 16.24675289 608.17335254 17.43588025 607.4375 18.625 C606.66975065 19.87622317 605.90267301 21.12785872 605.13623047 22.37988281 C603.54616519 24.97595826 601.95324825 27.5702475 600.35791016 30.16308594 C596.76019234 36.01316809 593.19102825 41.88055234 589.625 47.75 C589.27895721 48.31906067 588.93291443 48.88812134 588.5763855 49.47442627 C582.40933517 59.6193745 576.34161241 69.82168838 570.29354858 80.03790283 C564.04590226 90.58878704 557.72226519 101.09031088 551.34375 111.5625 C546.19339111 120.02040818 541.08726738 128.5040094 536 137 C530.22342233 146.64717321 524.41176035 156.27173674 518.5625 165.875 C512.47175627 175.87574565 506.46494904 185.92375864 500.5 196 C493.85141722 207.23106407 487.13299922 218.41597143 480.34375 229.5625 C475.19339111 238.02040818 470.08726738 246.5040094 465 255 C459.22342233 264.64717321 453.41176035 274.27173674 447.5625 283.875 C441.47175627 293.87574565 435.46494904 303.92375864 429.5 314 C422.86094772 325.21496475 416.15394815 336.38487312 409.37231445 347.51416016 C405.58597098 353.73105019 401.8177123 359.95797821 398.078125 366.203125 C397.66816788 366.8876474 397.25821075 367.5721698 396.83583069 368.2774353 C394.85037267 371.59388417 392.86715406 374.91165226 390.88647461 378.23095703 C390.16783662 379.4326355 389.44916948 380.63429655 388.73046875 381.8359375 C387.79303833 383.40674072 387.79303833 383.40674072 386.83666992 385.00927734 C385 388 385 388 382.9176445 390.62219429 C380.45174895 394.96570846 380.43543874 398.13351194 380.48101807 403.03561401 C380.47351681 403.93503853 380.46601556 404.83446305 380.458287 405.76114285 C380.43801796 408.7692201 380.44611107 411.77654302 380.45410156 414.78466797 C380.44536615 416.94316859 380.43488048 419.10166274 380.42277527 421.26014709 C380.39489104 427.11709445 380.39151113 432.97383076 380.39249516 438.83083487 C380.38936817 444.95279269 380.36375437 451.07465516 380.34051514 457.19656372 C380.29993533 468.78800873 380.27960973 480.37939745 380.26654124 491.97090256 C380.247712 507.63538011 380.19763522 523.29975564 380.14929771 538.96416473 C380.07396876 563.64277121 380.04042383 588.32125452 380 613 C332.81 613 285.62 613 237 613 C237.14824219 597.5621875 237.29648438 582.124375 237.44921875 566.21875 C237.50075233 556.38400605 237.54739897 546.54963166 237.57226562 536.71484375 C237.61255074 521.13593162 237.67163588 505.55887063 237.8605957 489.98095703 C237.99819067 478.62997466 238.06684768 467.28089384 238.05671436 455.92904902 C238.05366286 449.93134328 238.08240306 443.9380267 238.194067 437.94126892 C238.70030787 409.36240641 237.07613018 388.54055225 219.46888161 365.36784363 C215.17754001 359.65116919 211.68981474 353.39808629 208.0625 347.25 C206.66500352 344.93808092 205.25654992 342.63313995 203.84765625 340.328125 C200.06298472 334.11157702 196.31653378 327.87284285 192.58056641 321.62695312 C189.10522948 315.82420421 185.59602158 310.04266044 182.078125 304.265625 C175.14798541 292.88493706 168.28765614 281.46628131 161.5 270 C155.51088255 259.88430398 149.48435092 249.79359307 143.375 239.75 C143.02725525 239.1782605 142.6795105 238.606521 142.32122803 238.01745605 C139.88314193 234.01022062 137.44195666 230.00487759 135 226 C132.20614393 221.41799748 129.41376307 216.83510446 126.625 212.25 C126.27741638 211.67858276 125.92983276 211.10716553 125.57171631 210.51843262 C119.40668597 200.37645734 113.34147691 190.17682551 107.29455566 179.96411133 C101.70593289 170.52789094 96.07444585 161.11972119 90.375 151.75 C90.02725525 151.1782605 89.6795105 150.606521 89.32122803 150.01745605 C86.88314193 146.01022062 84.44195666 142.00487759 82 138 C79.20614393 133.41799748 76.41376307 128.83510446 73.625 124.25 C73.10362457 123.39287415 73.10362457 123.39287415 72.57171631 122.51843262 C66.40833622 112.37917213 60.34390814 102.18273822 54.29959106 91.97216797 C47.23370891 80.03853409 40.06067833 68.17323847 32.84765625 56.328125 C29.07651448 50.13380045 25.34032325 43.91920161 21.62231445 37.69287109 C18.60552588 32.64949395 15.55385173 27.62858772 12.484375 22.6171875 C11.29881869 20.67800234 10.11351465 18.73866313 8.92822266 16.79931641 C8.14631707 15.52227955 7.36280205 14.24622665 6.57763672 12.97119141 C5.48014623 11.18888183 4.38802858 9.40338135 3.296875 7.6171875 C2.66104492 6.58190918 2.02521484 5.54663086 1.37011719 4.47998047 C0 2 0 2 0 0 Z " fill="#488314" transform="translate(3747,31)"/>
<path d="M0 0 C176.22 0 352.44 0 534 0 C534 38.28 534 76.56 534 116 C469.32 116 404.64 116 338 116 C338 280.01 338 444.02 338 613 C291.14 613 244.28 613 196 613 C196 448.99 196 284.98 196 116 C131.32 116 66.64 116 0 116 C0 77.72 0 39.44 0 0 Z " fill="#3E782F" transform="translate(3146,31)"/>
<path d="M0 0 C47.19 0 94.38 0 143 0 C143 202.29 143 404.58 143 613 C95.81 613 48.62 613 0 613 C0 410.71 0 208.42 0 0 Z " fill="#387141" transform="translate(2928,31)"/>
<path d="M0 0 C47.19 0 94.38 0 143 0 C143 202.29 143 404.58 143 613 C95.81 613 48.62 613 0 613 C0 410.71 0 208.42 0 0 Z " fill="#2B6266" transform="translate(2056,31)"/>
</svg>
